<?xml version="1.0" encoding="utf-8"?>
<!-- Generator: Adobe Illustrator 23.0.1, SVG Export Plug-In . SVG Version: 6.00 Build 0)  -->
<svg version="1.1" id="Layer_1" xmlns="http://www.w3.org/2000/svg" xmlns:xlink="http://www.w3.org/1999/xlink" x="0px" y="0px"
	 viewBox="0 0 276.2 276.2" style="enable-background:new 0 0 276.2 276.2;" xml:space="preserve">
<style type="text/css">
	.st0{filter:url(#Adobe_OpacityMaskFilter);}
	.st1{filter:url(#Adobe_OpacityMaskFilter_1_);}
	.st2{clip-path:url(#SVGID_2_);mask:url(#XMLID_3_);fill-rule:evenodd;clip-rule:evenodd;fill:url(#XMLID_4_);}
	.st3{clip-path:url(#SVGID_2_);fill-rule:evenodd;clip-rule:evenodd;fill:url(#XMLID_5_);}
	.st4{clip-path:url(#SVGID_2_);fill-rule:evenodd;clip-rule:evenodd;fill:url(#XMLID_6_);}
	.st5{clip-path:url(#SVGID_2_);fill-rule:evenodd;clip-rule:evenodd;fill:url(#SVGID_3_);}
	.st6{fill-rule:evenodd;clip-rule:evenodd;fill:url(#SVGID_4_);}
	.st7{fill-rule:evenodd;clip-rule:evenodd;fill:url(#SVGID_5_);}
	.st8{fill-rule:evenodd;clip-rule:evenodd;fill:url(#SVGID_6_);}
	.st9{fill-rule:evenodd;clip-rule:evenodd;fill:url(#SVGID_7_);}
	.st10{fill-rule:evenodd;clip-rule:evenodd;fill:url(#SVGID_8_);}
	.st11{fill-rule:evenodd;clip-rule:evenodd;fill:url(#SVGID_9_);}
</style>
<g>
	<defs>
		<path id="SVGID_1_" d="M-101.82-60.77v412h491v-412H-101.82z M187.67,162.77c-8.5,16.31-24.92,28.07-44.55,29.73
			c-30.43,2.57-57.34-20.15-59.91-50.62c-0.91-10.79,1.36-21.15,6.03-30.13c0.02-0.02,0.02-0.05,0.04-0.07
			c9.41-17.25,27.73-28.99,48.72-28.99c30.54,0,55.44,24.9,55.44,55.47C193.45,147,191.37,155.36,187.67,162.77z"/>
	</defs>
	<clipPath id="SVGID_2_">
		<use xlink:href="#SVGID_1_"  style="overflow:visible;"/>
	</clipPath>
	<defs>
		<filter id="Adobe_OpacityMaskFilter" filterUnits="userSpaceOnUse" x="0.18" y="0.23" width="276.06" height="276">
			<feFlood  style="flood-color:white;flood-opacity:1" result="back"/>
			<feBlend  in="SourceGraphic" in2="back" mode="normal"/>
		</filter>
	</defs>
	<mask maskUnits="userSpaceOnUse" x="0.18" y="0.23" width="276.06" height="276" id="XMLID_3_">
		<g id="XMLID_8_" class="st0">
			<defs>
				<filter id="Adobe_OpacityMaskFilter_1_" filterUnits="userSpaceOnUse" x="0.18" y="0.23" width="276.06" height="276">
					<feFlood  style="flood-color:white;flood-opacity:1" result="back"/>
					<feBlend  in="SourceGraphic" in2="back" mode="normal"/>
				</filter>
			</defs>
			<mask maskUnits="userSpaceOnUse" x="0.18" y="0.23" width="276.06" height="276" id="XMLID_3_">
				<g id="XMLID_16_" class="st1">
				</g>
			</mask>

				<radialGradient id="XMLID_4_" cx="114.7885" cy="135.7745" r="150" gradientTransform="matrix(0.9202 0 0 0.92 32.5805 13.3125)" gradientUnits="userSpaceOnUse">
				<stop  offset="0" style="stop-color:#FFFFFF"/>
				<stop  offset="1" style="stop-color:#000000"/>
			</radialGradient>
			<ellipse id="XMLID_12_" class="st2" cx="138.21" cy="138.23" rx="138.03" ry="138"/>
		</g>
	</mask>

		<radialGradient id="XMLID_5_" cx="114.7885" cy="135.7745" r="150" gradientTransform="matrix(0.9202 0 0 0.92 32.5805 13.3125)" gradientUnits="userSpaceOnUse">
		<stop  offset="0" style="stop-color:#FFFFFF"/>
		<stop  offset="0.9637" style="stop-color:#FAC4E6"/>
	</radialGradient>
	<ellipse id="XMLID_23_" class="st3" cx="138.21" cy="138.23" rx="138.03" ry="138"/>
	<radialGradient id="XMLID_6_" cx="168.431" cy="166.8574" r="197.7296" gradientUnits="userSpaceOnUse">
		<stop  offset="0" style="stop-color:#FFFFFF"/>
		<stop  offset="0.4544" style="stop-color:#E566B7"/>
		<stop  offset="1" style="stop-color:#86A8E7"/>
	</radialGradient>
	<path id="XMLID_2_" class="st4" d="M138.22-1.04c88.55,13.19,143.52,108.54,93.12,182.13c-25.46,37.17-72.81,53.36-114.47,34.24
		c43.76,35.44,110.02,5.97,135.61-40.88c18.09-33.09,18.87-71.04,5.89-106.1c32.84,83.24-22.21,178.5-111.13,171.66
		c-44.96-3.46-82.62-36.34-86.9-82c-8.78,55.63,49.82,98.23,103.18,97c37.74-0.87,70.96-19.16,94.86-47.92
		c-58.51,73.63-174.55,67.95-207.47-18.01c-15.08-39.31-4.04-83.98,30.78-108.66c-52.54,20.15-60.16,92.26-32.39,137.83
		c19.61,32.22,52.08,51.88,88.92,58.18C45.17,262.6-7.9,159.25,50.08,87.76c26.5-32.72,70.71-45.45,109.52-27.65
		c-43.76-35.44-110.02-5.97-135.61,40.83C5.91,134.08,5.12,171.99,18.1,207.09c-32.84-83.28,22.21-178.54,111.13-171.7
		c44.96,3.46,82.62,36.38,86.9,82c8.78-55.59-49.82-98.23-103.18-97C75.21,21.3,42,39.59,18.1,68.35
		C76.61-5.32,192.65,0.41,225.57,86.32c15.08,39.31,4.04,84.02-30.78,108.7c52.54-20.19,60.16-92.3,32.39-137.87
		C207.56,24.92,175.1,5.31,138.22-1.04L138.22-1.04z"/>
	<radialGradient id="SVGID_3_" cx="63.8377" cy="67.0099" r="217.0542" gradientUnits="userSpaceOnUse">
		<stop  offset="0" style="stop-color:#FFFFFF"/>
		<stop  offset="1" style="stop-color:#86A8E7"/>
	</radialGradient>
	<path class="st5" d="M226.89,119.33c-2.31,7.05-15.82,33.25-24.6,23.12c8.49-33.75-3.05-65.93-29.92-87.97
		c4.66,6.22,18.13,32.47,4.53,33.91c-22.42-25.88-54.8-34.57-87.64-24.97c7.62-0.16,35.15,3.83,27.07,15.58
		c-34.45,5.32-58.92,29.71-66.75,63.54c3.26-5.93,18.38-25.67,24.27-14.09c1.69,3.26-19.98,52.54,29.59,91.56
		c-3.83-5.19-15.53-27.11-2.8-27.53c3.75-0.12,39.56,40.88,97.2,12.86c-6.84,1.4-34.61,2.8-28.76-9.68
		C203.16,184.02,224.01,155.01,226.89,119.33z M143.13,192.51c-30.43,2.57-57.34-20.15-59.91-50.62
		c-0.91-10.79,1.36-21.15,6.03-30.13c0.02-0.02,0.02-0.05,0.04-0.07c9.41-17.25,27.73-28.99,48.72-28.99
		c30.54,0,55.44,24.9,55.44,55.47c0,8.83-2.08,17.19-5.78,24.6C179.17,179.09,162.75,190.85,143.13,192.51z">
			<animateTransform attributeName="transform"
				attributeType="XML"
				type="rotate"
				from="0 138 138"
				to="360 138 138"
				dur="10s"
				repeatCount="indefinite"
			/>

	</path>
</g>
<g>
	<radialGradient id="SVGID_4_" cx="132.433" cy="97.3909" r="104.1099" gradientUnits="userSpaceOnUse">
		<stop  offset="0" style="stop-color:#FFFFFF"/>
		<stop  offset="1" style="stop-color:#B6CBEF"/>
	</radialGradient>
	<path class="st6" d="M225.44,86.08c15.08,39.31,4.04,84.02-30.78,108.7c52.54-20.19,60.16-92.3,32.39-137.87
		C208.75,26.86,179.28,7.78,145.48,0.2c-2.44-0.13-4.9-0.2-7.38-0.2C89.41,0,46.6,25.21,22.01,63.28
		C81.67-5.25,193.25,2.1,225.44,86.08z"/>
	<radialGradient id="SVGID_5_" cx="191.9033" cy="115.5123" r="97.2924" gradientUnits="userSpaceOnUse">
		<stop  offset="0" style="stop-color:#FFFFFF"/>
		<stop  offset="1" style="stop-color:#B6CBEF"/>
	</radialGradient>
	<path class="st7" d="M231.21,180.85c-25.46,37.17-72.81,53.36-114.47,34.24c43.76,35.44,110.02,5.97,135.61-40.88
		c17.24-31.53,18.75-67.47,7.63-101.12c-22-41.15-64.22-69.86-113.4-72.83C230.08,18.07,279.97,109.65,231.21,180.85z"/>
	<radialGradient id="SVGID_6_" cx="167.764" cy="164.2477" r="99.8988" gradientUnits="userSpaceOnUse">
		<stop  offset="0" style="stop-color:#FFFFFF"/>
		<stop  offset="1" style="stop-color:#B6CBEF"/>
	</radialGradient>
	<path class="st8" d="M163.38,254.78c37.17-0.85,69.94-18.62,93.75-46.63c12.11-20.54,19.07-44.48,19.07-70.05
		c0-23.26-5.76-45.18-15.92-64.41c28.31,81.85-26.24,172.77-113.18,166.09c-44.96-3.46-82.62-36.34-86.9-82
		C51.43,213.41,110.02,256.01,163.38,254.78z"/>
	<radialGradient id="SVGID_7_" cx="108.4398" cy="112.5666" r="100.7579" gradientUnits="userSpaceOnUse">
		<stop  offset="0" style="stop-color:#FFFFFF"/>
		<stop  offset="1" style="stop-color:#B6CBEF"/>
	</radialGradient>
	<path class="st9" d="M129.1,35.15c44.96,3.46,82.62,36.38,86.9,82c8.78-55.59-49.82-98.23-103.18-97
		c-35.87,0.86-67.65,17.44-91.23,43.77C7.92,85.35,0,110.8,0,138.1c0,24.28,6.27,47.08,17.27,66.9
		C-14.04,122.18,40.83,28.36,129.1,35.15z"/>
	<radialGradient id="SVGID_8_" cx="145.1911" cy="178.1967" r="105.1519" gradientUnits="userSpaceOnUse">
		<stop  offset="0" style="stop-color:#FFFFFF"/>
		<stop  offset="1" style="stop-color:#B6CBEF"/>
	</radialGradient>
	<path class="st10" d="M50.77,188.85c-15.08-39.31-4.04-83.98,30.78-108.66c-52.54,20.15-60.16,92.26-32.39,137.83
		c19.61,32.22,52.08,51.88,88.92,58.18c0.01,0,0.01,0,0.02,0c50.63,0,94.89-27.25,118.93-67.88
		C198.15,280.39,83.47,274.22,50.77,188.85z">
		<animateTransform attributeName="transform"
			attributeType="XML"
			type="rotate"
			from="360 138 138"
			to="0 138 138"
			dur="20s"
			repeatCount="indefinite"
		/>

</path>


	<radialGradient id="SVGID_9_" cx="84.3003" cy="160.2078" r="97.737" gradientUnits="userSpaceOnUse">
		<stop  offset="0" style="stop-color:#FFFFFF"/>
		<stop  offset="1" style="stop-color:#B6CBEF"/>
	</radialGradient>
	<path class="st11" d="M49.94,87.52c26.5-32.72,70.71-45.45,109.52-27.65C115.71,24.44,49.45,53.9,23.86,100.71
		c-17.8,32.61-18.83,69.84-6.48,104.48c23.58,42.35,68.79,71,120.7,71.01C45.04,262.36-8.03,159.02,49.94,87.52z"/>
</g>
</svg>
